<?xml version="1.0" encoding="UTF-8" standalone="no"?>
<svg
   xmlns:dc="http://purl.org/dc/elements/1.1/"
   xmlns:cc="http://creativecommons.org/ns#"
   xmlns:rdf="http://www.w3.org/1999/02/22-rdf-syntax-ns#"
   xmlns:svg="http://www.w3.org/2000/svg"
   xmlns="http://www.w3.org/2000/svg"
   xmlns:sodipodi="http://sodipodi.sourceforge.net/DTD/sodipodi-0.dtd"
   xmlns:inkscape="http://www.inkscape.org/namespaces/inkscape"
   sodipodi:docname="clef.svg"
   inkscape:version="1.0 (4035a4fb49, 2020-05-01)"
   id="svg8"
   version="1.1"
   viewBox="0 0 13.468733 38.004471"
   height="38.004471mm"
   width="13.468733mm">
  <defs
     id="defs2" />
  <sodipodi:namedview
     inkscape:window-maximized="0"
     inkscape:window-y="0"
     inkscape:window-x="0"
     inkscape:window-height="720"
     inkscape:window-width="1264"
     inkscape:showpageshadow="false"
     showgrid="false"
     inkscape:document-rotation="0"
     inkscape:current-layer="layer1"
     inkscape:document-units="mm"
     inkscape:cy="126.10521"
     inkscape:cx="-91.690076"
     inkscape:zoom="1.4"
     inkscape:pageshadow="2"
     inkscape:pageopacity="0.0"
     borderopacity="1.0"
     bordercolor="#666666"
     pagecolor="#ffffff"
     id="base" />
  <metadata
     id="metadata5">
    <rdf:RDF>
      <cc:Work
         rdf:about="">
        <dc:format>image/svg+xml</dc:format>
        <dc:type
           rdf:resource="http://purl.org/dc/dcmitype/StillImage" />
        <dc:title></dc:title>
      </cc:Work>
    </rdf:RDF>
  </metadata>
  <g
     transform="translate(-130.093,-114.80133)"
     id="layer1"
     inkscape:groupmode="layer"
     inkscape:label="Layer 1">
    <path
       style="stroke-width:0.264583"
       id="path26"
       stroke="#000000"
       d="m 138.39522,114.93393 c -1.4359,-0.0373 -3.11521,3.39143 -3.05938,6.44922 0.013,0.93133 0.30692,2.82019 0.7358,5.19245 -2.70483,2.79955 -5.8457,5.67267 -5.8457,9.44245 -0.0431,3.45466 2.06825,7.85601 7.0776,7.81367 0.76888,-0.005 1.46077,-0.10054 2.0754,-0.26458 0.45799,2.5109 0.76253,4.49263 0.76067,5.40808 0.0161,3.60892 -4.72545,3.96611 -4.95273,1.89177 0.99933,-0.0344 1.7944,-0.82814 1.7944,-1.80975 0,-1.00277 -0.83026,-1.82033 -1.86055,-1.82033 -0.56647,0 -1.0713,0.24871 -1.41367,0.63765 -0.008,0.008 -0.0172,0.0159 -0.0249,0.0238 -0.0773,0.082 -0.14234,0.17991 -0.20664,0.29104 -0.21113,0.35719 -0.34819,0.87048 -0.3556,1.60337 0,3.02154 7.63985,4.96623 7.63985,-0.99218 0.0119,-0.80169 -0.33285,-2.83634 -0.83503,-5.40015 5.45121,-1.97115 4.08173,-10.06475 -0.93424,-10.10285 -0.38894,0.004 -0.76385,0.0492 -1.12448,0.14076 -0.28575,-1.37504 -0.56145,-2.7096 -0.80222,-3.93594 1.90474,-1.87087 3.56791,-4.2926 3.5306,-8.75586 0.006,-3.20516 -1.06204,-5.77532 -2.19921,-5.81263 z m 0.33893,3.10065 c 0.64981,-0.0627 1.16575,0.54055 1.16575,1.86849 0.0526,2.28071 -1.54517,4.27249 -3.44778,6.27565 -0.18204,-1.09722 -0.30136,-1.98622 -0.31433,-2.51354 0.054,-3.56288 1.51315,-5.52609 2.59636,-5.6306 z m -2.04232,11.82344 c 0.23204,1.19459 0.4826,2.45322 0.7358,3.72083 -3.31999,1.1811 -4.91331,5.80867 -0.20664,7.87956 -2.86887,-2.44237 -1.45679,-5.33347 0.61172,-5.83724 0.52017,2.59715 1.02817,5.15991 1.43881,7.37447 -0.55748,0.19579 -1.20809,0.30956 -1.96798,0.31485 -1.89997,0 -5.69674,-1.20914 -5.69674,-5.78776 0,-3.83487 2.65827,-5.39326 5.08503,-7.66471 z m 1.61237,5.68034 c 0.0828,-0.005 0.17251,-0.003 0.25612,0 3.45625,0 4.75985,5.48878 1.24036,7.24297 -0.43788,-2.20134 -0.9689,-4.72546 -1.49648,-7.24297 z" />
  </g>
</svg>
